<?xml version="1.0" standalone="no"?>
<!DOCTYPE svg PUBLIC "-//W3C//DTD SVG 20010904//EN"
 "http://www.w3.org/TR/2001/REC-SVG-20010904/DTD/svg10.dtd">
<svg version="1.0" xmlns="http://www.w3.org/2000/svg"
 width="512.000000pt" height="512.000000pt" viewBox="0 0 512.000000 512.000000"
 preserveAspectRatio="xMidYMid meet">

<g transform="translate(0.000000,512.000000) scale(0.100000,-0.100000)"
fill="#000000" stroke="none">
<path d="M1983 4316 c-9 -17 -41 -58 -71 -91 -30 -33 -68 -77 -83 -98 -35 -48
-42 -50 -49 -12 -4 22 -11 29 -23 27 -10 -2 -26 6 -35 18 l-17 21 -115 -40
c-205 -70 -255 -99 -407 -238 -56 -51 -108 -93 -114 -93 -26 0 -101 -75 -138
-138 -52 -89 -76 -197 -66 -301 10 -119 40 -230 84 -312 22 -40 44 -99 50
-129 26 -139 44 -213 78 -315 36 -112 115 -322 134 -358 11 -19 11 -19 32 1
12 11 34 23 48 27 15 4 36 18 48 31 22 26 42 30 71 14 11 -6 16 -17 13 -29 -5
-19 38 -52 87 -66 14 -4 49 -19 78 -33 48 -24 54 -25 65 -11 11 14 24 14 117
4 117 -14 377 -39 400 -39 8 0 34 3 57 7 41 7 42 6 53 -29 22 -65 86 -163 108
-164 6 0 12 -4 12 -9 0 -22 56 -31 140 -22 226 26 368 77 462 167 22 21 40
108 43 199 l2 70 74 33 c41 17 82 31 92 30 13 -2 28 -26 48 -74 33 -79 89
-144 125 -144 12 0 30 -3 40 -7 12 -4 15 -3 10 5 -4 7 -19 12 -34 12 -49 1
-92 52 -130 153 -12 33 -22 60 -22 62 0 2 24 6 53 10 28 4 55 13 59 19 13 19
8 100 -7 126 -22 39 -19 43 40 38 45 -4 62 -11 88 -36 52 -50 70 -42 43 21
-13 32 -74 87 -96 87 -6 0 -45 -18 -88 -39 -101 -51 -172 -126 -172 -181 0
-23 -8 -29 -65 -52 l-64 -25 -12 34 c-15 48 -60 73 -129 73 -101 0 -252 -33
-427 -92 -102 -35 -135 -51 -171 -84 -42 -37 -46 -44 -46 -91 l-1 -51 -45 -2
c-85 -3 -106 -1 -322 24 -120 14 -222 26 -227 26 -14 0 -60 205 -72 324 -14
144 4 295 54 432 22 60 76 164 98 187 10 11 19 26 19 31 0 6 18 22 40 36 22
13 40 28 40 32 0 4 44 8 97 8 94 0 521 40 633 59 274 48 341 74 443 171 78 75
121 110 135 110 6 0 27 -20 48 -45 20 -25 38 -44 40 -42 2 2 -9 44 -25 93 -16
49 -33 114 -36 144 -8 57 -38 157 -60 201 -25 47 -89 96 -136 104 -66 11 -77
21 -94 83 -43 153 -58 156 -210 42 -82 -61 -145 -100 -185 -114 -8 -3 -24 -12
-36 -21 -19 -14 -25 -10 -120 84 -69 68 -110 101 -132 105 -18 5 -42 21 -56
39 -23 28 -30 31 -86 33 -59 1 -61 0 -77 -30z m-406 -598 c-3 -8 -6 -5 -6 6
-1 11 2 17 5 13 3 -3 4 -12 1 -19z m-10 -60 c-3 -7 -5 -2 -5 12 0 14 2 19 5
13 2 -7 2 -19 0 -25z m-10 -50 c-3 -7 -5 -2 -5 12 0 14 2 19 5 13 2 -7 2 -19
0 -25z m-10 -80 c-3 -8 -6 -5 -6 6 -1 11 2 17 5 13 3 -3 4 -12 1 -19z m1798
-948 c9 -28 -13 -52 -44 -48 -31 4 -38 29 -16 52 23 22 52 20 60 -4z m-381
-84 c25 -10 37 -24 46 -52 10 -28 10 -39 1 -42 -17 -6 -13 -29 5 -36 15 -6 16
-18 11 -91 -8 -109 -32 -165 -86 -199 -128 -81 -444 -155 -513 -120 -38 20
-93 91 -118 153 -11 29 -19 54 -18 56 2 1 39 11 83 22 83 21 413 153 383 153
-23 0 -102 -27 -159 -55 -79 -38 -280 -100 -287 -89 -4 6 -15 13 -24 17 -24 9
-23 54 2 94 25 41 85 72 252 127 205 68 356 90 422 62z"/>
<path d="M3380 3023 c-13 -10 -65 -38 -115 -63 l-90 -45 -13 -54 c-7 -29 -11
-56 -7 -59 12 -13 146 42 216 89 51 33 84 49 107 49 l32 0 -25 50 c-21 42 -30
50 -53 50 -15 0 -39 -8 -52 -17z"/>
<path d="M3753 2772 c10 -10 17 -22 17 -27 0 -13 -90 2 -108 19 -18 16 -87 13
-97 -5 -9 -13 17 -23 120 -44 115 -23 112 -18 114 -157 2 -125 -13 -176 -68
-225 -53 -50 -34 -58 21 -9 47 42 68 115 68 242 l0 92 30 12 c41 17 35 42 -13
53 -20 5 -37 13 -37 18 0 5 -9 18 -20 29 -25 25 -49 27 -27 2z"/>
<path d="M2735 2735 c-38 -19 -113 -50 -165 -68 -52 -19 -117 -46 -145 -60
-71 -36 -165 -140 -165 -182 0 -23 10 -20 117 34 54 27 130 59 168 71 177 54
321 118 332 146 4 10 -8 30 -33 54 l-39 38 -70 -33z"/>
<path d="M1357 2184 c-10 -10 84 -91 128 -111 22 -10 46 -23 53 -30 18 -17 32
-16 32 1 0 16 -103 109 -146 131 -31 16 -57 19 -67 9z"/>
<path d="M1570 2006 c0 -9 5 -16 10 -16 6 0 10 4 10 9 0 6 -4 13 -10 16 -5 3
-10 -1 -10 -9z"/>
<path d="M1757 1993 c-5 -4 -24 -6 -44 -4 l-36 3 5 -65 c3 -36 13 -80 22 -98
9 -17 16 -37 16 -43 0 -6 13 -38 29 -71 l30 -60 -31 -7 c-17 -3 -35 -13 -40
-22 -15 -26 -65 -19 -134 20 -35 20 -64 34 -64 31 0 -9 117 -75 145 -81 17 -4
46 -10 65 -15 19 -4 53 -20 74 -34 21 -15 42 -27 46 -27 4 0 28 -42 54 -94 51
-105 152 -223 217 -257 22 -11 85 -29 142 -40 113 -22 272 -68 357 -104 30
-13 124 -40 208 -61 151 -37 154 -38 250 -27 131 14 212 46 232 92 8 19 43 89
77 155 90 179 140 302 153 379 11 59 10 77 -6 137 -16 61 -21 70 -41 70 -14 0
-23 -6 -23 -16 0 -11 -8 -15 -27 -12 -24 2 -28 -1 -26 -19 2 -21 2 -21 -30 -5
-45 23 -131 20 -267 -9 -106 -22 -250 -26 -385 -12 -128 14 -198 11 -223 -9
-21 -17 4 -36 66 -49 31 -7 62 -12 69 -12 17 0 25 -27 9 -27 -8 0 -16 5 -18
11 -2 6 -13 9 -23 7 -44 -9 150 -97 245 -112 31 -4 32 -4 12 6 -13 6 -21 19
-20 27 3 13 17 15 88 13 67 -3 82 -1 73 9 -7 7 -26 12 -43 11 -17 0 -28 2 -26
6 2 4 -17 8 -42 9 -26 1 -72 5 -102 10 -46 7 -24 10 135 15 105 4 218 12 252
18 34 6 97 12 140 14 43 2 92 7 109 11 l31 7 13 -65 c14 -78 8 -117 -31 -178
-16 -25 -32 -60 -35 -77 -7 -34 -19 -46 -44 -47 -8 0 -16 -10 -18 -22 -2 -14
-10 -23 -21 -23 -9 0 -22 -5 -29 -12 -9 -9 -12 -9 -12 1 0 9 -8 11 -25 7 -21
-5 -32 0 -55 26 -29 32 -32 58 -9 82 21 23 8 33 -38 29 -27 -2 -70 -4 -98 -6
-47 -2 -50 -4 -53 -30 -2 -16 2 -34 8 -42 11 -13 8 -80 -4 -93 -8 -8 -14 -9
-51 -11 -15 0 -25 -7 -25 -16 0 -19 -14 -19 -30 0 -8 9 -21 13 -32 9 -13 -4
-27 4 -46 24 -21 23 -34 29 -54 25 -20 -4 -28 0 -33 16 -13 41 -90 106 -147
125 -29 9 -74 82 -104 167 -25 72 -29 79 -41 63 -8 -10 -11 -25 -7 -34 3 -8 8
-60 11 -115 l6 -99 -28 29 c-15 17 -50 64 -78 105 -56 84 -92 126 -122 143
-11 6 -86 20 -168 32 -118 17 -150 25 -161 41 -8 10 -36 72 -61 136 -51 125
-66 154 -78 141z m956 -380 c-7 -2 -19 -2 -25 0 -7 3 -2 5 12 5 14 0 19 -2 13
-5z"/>
<path d="M3055 1810 l-30 -7 28 -11 c16 -7 46 -12 68 -12 21 0 39 -4 39 -10 0
-13 36 -13 63 1 19 11 14 14 -49 30 -75 20 -75 20 -119 9z"/>
<path d="M3030 1550 c13 -9 179 -15 169 -6 -2 2 -44 6 -94 10 -60 4 -85 3 -75
-4z"/>
<path d="M3065 752 c4 -23 15 -66 26 -94 10 -29 19 -76 19 -105 0 -46 3 -53
20 -53 48 0 53 91 11 183 -15 34 -41 73 -56 87 l-27 25 7 -43z"/>
<path d="M1810 762 c-9 -4 -32 -20 -53 -36 -27 -21 -37 -36 -37 -56 0 -48
-172 -263 -379 -475 l-185 -190 94 -3 c74 -2 95 0 102 12 13 23 140 42 196 28
26 -6 81 -16 123 -21 41 -6 84 -13 95 -16 10 -3 1 3 -21 14 -22 11 -46 20 -53
20 -7 1 -38 12 -70 25 -31 13 -81 27 -110 31 l-54 7 30 18 c16 10 39 31 50 47
12 17 66 76 121 133 55 57 98 107 95 111 -2 4 1 11 7 15 6 3 18 21 26 38 27
59 39 74 86 110 46 35 47 35 124 31 43 -3 85 -1 93 5 18 11 18 11 -53 44 -57
27 -58 28 -41 47 9 10 14 22 11 26 -6 5 -48 15 -157 37 -14 3 -32 2 -40 -2z"/>
<path d="M2290 696 c0 -2 11 -6 25 -8 13 -3 22 -1 19 3 -5 9 -44 13 -44 5z"/>
<path d="M2380 665 c14 -8 30 -14 35 -14 6 0 -1 6 -15 14 -14 8 -29 14 -35 14
-5 0 1 -6 15 -14z"/>
<path d="M2540 602 c0 -4 21 -16 47 -25 26 -10 43 -14 38 -8 -15 14 -85 41
-85 33z"/>
<path d="M2160 591 c14 -4 43 -11 65 -14 l40 -6 -40 14 c-22 7 -51 13 -65 13
l-25 0 25 -7z"/>
<path d="M2290 559 c142 -67 310 -160 310 -171 0 -5 4 -8 9 -8 5 0 55 -22 112
-49 57 -27 124 -54 149 -61 25 -7 62 -21 83 -32 29 -15 49 -18 85 -14 42 6 74
8 190 14 50 3 68 29 75 110 4 41 3 82 -3 97 -14 36 -44 30 -48 -10 -5 -43 -34
-74 -105 -111 -95 -51 -186 -46 -352 18 -100 38 -391 175 -427 200 -15 11 -45
21 -65 24 -35 4 -36 4 -13 -7z"/>
<path d="M2666 551 c12 -13 145 -63 151 -57 2 2 -27 16 -64 31 -98 39 -100 40
-87 26z"/>
</g>
</svg>
