<?xml version="1.0" standalone="no"?>
<!DOCTYPE svg PUBLIC "-//W3C//DTD SVG 20010904//EN"
 "http://www.w3.org/TR/2001/REC-SVG-20010904/DTD/svg10.dtd">
<svg version="1.0" xmlns="http://www.w3.org/2000/svg"
 width="2172.000000pt" height="1896.000000pt" viewBox="0 0 2172.000000 1896.000000"
 preserveAspectRatio="xMidYMid meet">

<g transform="translate(0.000000,1896.000000) scale(0.100000,-0.100000)"
fill="#000000" stroke="none">
<path d="M12255 18864 c-159 -52 -362 -117 -450 -145 -88 -28 -227 -73 -310
-99 -82 -27 -242 -78 -355 -114 -1559 -494 -1612 -512 -2530 -824 -333 -113
-756 -256 -940 -318 -184 -62 -452 -153 -595 -204 -143 -50 -280 -98 -305
-107 -25 -8 -59 -21 -77 -29 -17 -8 -37 -14 -45 -14 -20 0 -141 -41 -153 -51
-5 -5 -16 -9 -25 -9 -8 0 -27 -6 -41 -14 -14 -7 -38 -16 -54 -20 -16 -4 -47
-16 -68 -26 -22 -11 -55 -22 -74 -26 -18 -3 -33 -10 -33 -15 0 -5 -9 -9 -20
-9 -11 0 -20 -4 -20 -9 0 -4 -15 -11 -34 -14 -18 -3 -53 -15 -77 -26 -23 -12
-47 -21 -53 -21 -9 0 -97 -40 -199 -91 -22 -10 -45 -19 -53 -19 -8 0 -14 -4
-14 -10 0 -5 -9 -10 -20 -10 -11 0 -20 -4 -20 -10 0 -5 -6 -10 -13 -10 -25 0
-117 -52 -117 -66 0 -8 -8 -14 -17 -14 -10 0 -31 -7 -47 -15 -15 -8 -37 -15
-47 -15 -11 0 -19 -4 -19 -9 0 -5 -15 -11 -32 -15 -42 -8 -138 -55 -138 -67 0
-5 -9 -9 -20 -9 -11 0 -20 -4 -20 -10 0 -5 -7 -10 -15 -10 -19 0 -58 -21 -68
-37 -4 -7 -17 -13 -27 -13 -11 0 -20 -4 -20 -10 0 -5 -9 -10 -20 -10 -11 0
-20 -4 -20 -10 0 -5 -9 -10 -20 -10 -11 0 -20 -4 -20 -10 0 -5 -20 -19 -45
-30 -25 -11 -45 -25 -45 -30 0 -6 -9 -10 -20 -10 -11 0 -20 -4 -20 -10 0 -5
-9 -10 -20 -10 -10 0 -23 -6 -27 -13 -4 -6 -21 -19 -38 -27 -16 -8 -43 -24
-60 -36 -16 -12 -40 -25 -52 -29 -13 -3 -23 -11 -23 -16 0 -5 -7 -9 -15 -9 -7
0 -18 -6 -22 -12 -9 -15 -31 -29 -91 -60 -23 -12 -42 -26 -42 -30 0 -4 -5 -8
-11 -8 -6 0 -28 -13 -49 -30 -21 -16 -43 -30 -49 -30 -7 0 -14 -7 -17 -15 -4
-8 -10 -15 -15 -15 -7 0 -75 -47 -116 -80 -7 -6 -17 -10 -23 -10 -6 0 -13 -7
-16 -15 -4 -8 -12 -15 -20 -15 -8 0 -19 -9 -26 -20 -7 -11 -20 -20 -30 -20 -9
0 -18 -4 -20 -9 -4 -12 -96 -81 -108 -81 -5 0 -14 -9 -20 -20 -6 -11 -15 -20
-19 -20 -9 0 -54 -36 -98 -77 -13 -13 -29 -23 -34 -23 -6 0 -25 -16 -43 -35
-19 -19 -39 -35 -45 -35 -6 0 -14 -7 -17 -15 -4 -8 -11 -15 -16 -15 -6 0 -21
-10 -33 -22 -12 -13 -41 -39 -64 -58 -24 -19 -60 -52 -82 -72 -21 -21 -42 -38
-45 -38 -7 0 -60 -49 -151 -137 -35 -35 -68 -63 -73 -63 -6 0 -10 -3 -10 -8 0
-11 -108 -122 -120 -122 -5 0 -10 -4 -10 -8 0 -4 -52 -60 -115 -124 -63 -64
-115 -118 -115 -121 0 -4 -92 -103 -150 -162 -11 -12 -20 -24 -20 -29 0 -4
-20 -27 -45 -50 -25 -24 -45 -47 -45 -51 0 -5 -7 -15 -15 -24 -33 -36 -71 -81
-90 -105 -11 -15 -31 -40 -45 -56 -40 -45 -70 -84 -70 -91 0 -4 -20 -29 -45
-55 -25 -27 -45 -54 -45 -60 0 -6 -9 -19 -20 -29 -11 -10 -20 -24 -20 -32 0
-7 -4 -13 -10 -13 -9 0 -45 -48 -76 -102 -6 -10 -21 -29 -33 -42 -11 -12 -21
-27 -21 -32 0 -5 -9 -15 -20 -22 -11 -7 -20 -21 -20 -31 0 -11 -4 -23 -10 -26
-13 -8 -80 -110 -80 -121 0 -5 -9 -15 -20 -22 -11 -7 -20 -19 -20 -28 0 -9
-11 -29 -25 -46 -14 -16 -25 -35 -25 -42 0 -6 -9 -19 -20 -29 -11 -9 -20 -24
-20 -33 0 -9 -11 -29 -25 -46 -14 -16 -25 -36 -25 -44 0 -8 -4 -14 -9 -14 -5
0 -14 -15 -22 -32 -7 -18 -23 -46 -36 -61 -13 -16 -23 -34 -23 -40 0 -7 -9
-23 -20 -37 -11 -14 -20 -33 -20 -42 0 -10 -4 -18 -8 -18 -5 0 -19 -19 -31
-42 -12 -24 -30 -56 -38 -73 -9 -16 -20 -37 -24 -45 -39 -71 -79 -153 -79
-161 0 -6 -11 -27 -25 -47 -14 -20 -25 -43 -25 -52 0 -8 -9 -26 -20 -40 -11
-14 -20 -37 -20 -52 0 -16 -4 -28 -10 -28 -12 0 -40 -54 -40 -78 0 -11 -7 -25
-15 -32 -8 -7 -17 -28 -21 -49 -4 -20 -15 -46 -26 -58 -11 -11 -22 -39 -25
-62 -3 -23 -9 -41 -13 -41 -5 0 -16 -21 -26 -47 -9 -27 -25 -66 -35 -89 -11
-22 -19 -52 -19 -67 0 -14 -5 -29 -10 -32 -15 -9 -40 -73 -40 -101 0 -13 -4
-24 -8 -24 -10 0 -32 -67 -32 -95 0 -10 -7 -26 -15 -35 -9 -9 -21 -44 -27 -76
-6 -32 -22 -82 -35 -111 -12 -28 -23 -68 -23 -87 0 -20 -4 -36 -8 -36 -5 0
-16 -35 -26 -77 -10 -43 -24 -93 -32 -110 -8 -18 -17 -63 -21 -100 -3 -38 -11
-75 -18 -83 -16 -19 -35 -108 -35 -165 0 -24 -5 -45 -11 -47 -14 -5 -38 -134
-38 -209 -1 -38 -5 -59 -15 -62 -13 -5 -22 -71 -42 -295 -3 -39 -10 -75 -15
-78 -5 -3 -9 -25 -9 -49 0 -24 -7 -93 -15 -152 -14 -110 -42 -934 -31 -952 3
-5 6 -71 7 -147 0 -77 4 -143 9 -149 4 -5 11 -75 15 -155 9 -179 9 -183 20
-200 5 -8 7 -34 6 -59 -3 -58 19 -211 31 -211 4 0 8 -23 8 -52 0 -66 19 -178
31 -178 5 0 9 -21 9 -46 0 -50 18 -132 33 -151 5 -7 6 -20 3 -30 -7 -18 12
-122 26 -138 4 -5 8 -22 8 -38 0 -32 20 -109 30 -117 4 -3 10 -29 13 -59 4
-29 13 -64 22 -77 8 -13 15 -36 15 -52 0 -36 19 -92 31 -92 5 0 9 -17 9 -37 0
-20 8 -55 18 -77 10 -23 24 -63 31 -91 7 -27 16 -51 22 -53 5 -2 9 -18 9 -35
0 -18 9 -47 20 -65 11 -18 20 -42 20 -53 0 -12 9 -38 19 -58 11 -20 22 -53 26
-73 3 -21 12 -41 19 -45 7 -5 16 -26 19 -48 4 -22 13 -45 22 -51 8 -6 15 -22
15 -35 0 -13 8 -37 18 -54 10 -16 24 -49 30 -72 7 -24 16 -43 20 -43 4 0 13
-20 20 -45 7 -25 16 -45 22 -45 5 0 10 -11 10 -24 0 -13 9 -35 20 -49 11 -14
20 -34 20 -45 0 -10 9 -31 20 -45 11 -14 20 -32 20 -40 0 -8 8 -25 18 -38 11
-13 22 -36 25 -51 4 -15 13 -33 20 -40 8 -7 17 -25 20 -40 4 -15 13 -33 20
-40 11 -12 50 -84 101 -189 11 -21 25 -39 33 -39 7 0 13 -11 13 -25 0 -14 9
-33 20 -42 11 -10 20 -25 20 -35 0 -10 9 -26 20 -35 11 -10 20 -25 20 -34 0
-9 7 -22 16 -29 8 -8 21 -28 29 -47 8 -18 19 -33 24 -33 6 0 11 -8 11 -18 0
-10 8 -27 18 -38 9 -10 23 -31 29 -46 7 -16 17 -28 23 -28 5 0 10 -5 10 -11 0
-17 61 -107 76 -113 8 -3 14 -14 14 -26 0 -11 9 -25 20 -32 11 -7 20 -20 20
-29 0 -9 7 -23 16 -30 9 -7 20 -23 25 -36 5 -13 15 -23 24 -23 8 0 15 -7 15
-16 0 -15 57 -95 73 -102 4 -2 7 -9 7 -16 0 -6 20 -33 45 -60 25 -27 45 -53
45 -57 0 -3 7 -13 16 -20 9 -7 20 -23 25 -36 5 -13 15 -23 24 -23 8 0 15 -8
15 -19 0 -10 18 -35 40 -55 22 -20 40 -38 40 -42 0 -10 142 -176 156 -181 8
-3 14 -10 14 -17 0 -6 18 -28 40 -49 22 -20 40 -40 40 -44 0 -16 469 -483 485
-483 7 0 15 -9 18 -20 3 -11 13 -23 22 -26 9 -4 41 -31 69 -60 29 -30 55 -54
58 -54 6 0 69 -53 119 -102 22 -21 43 -38 49 -38 5 0 14 -9 20 -20 6 -11 17
-20 25 -20 8 0 15 -3 15 -8 0 -10 106 -92 118 -92 6 0 12 -7 16 -15 3 -8 12
-15 21 -15 8 0 15 -7 15 -15 0 -8 4 -15 8 -15 10 0 49 -29 70 -52 9 -10 22
-18 30 -18 7 0 15 -7 18 -15 4 -8 11 -15 16 -15 6 0 27 -13 48 -30 21 -16 42
-30 48 -30 5 0 12 -7 16 -15 3 -8 10 -15 16 -15 5 0 19 -8 29 -18 33 -29 50
-42 56 -42 4 0 21 -11 39 -25 18 -14 36 -25 39 -25 6 0 79 -51 114 -80 7 -6
19 -10 28 -10 8 0 15 -4 15 -10 0 -5 17 -17 38 -27 20 -9 40 -21 43 -26 7 -10
38 -28 92 -54 20 -10 37 -21 37 -25 0 -4 17 -15 38 -25 20 -9 40 -21 43 -26 8
-12 100 -57 116 -57 7 0 13 -4 13 -9 0 -5 20 -20 45 -32 25 -12 45 -26 45 -31
0 -4 9 -8 20 -8 11 0 20 -4 20 -8 0 -8 93 -56 178 -93 17 -8 32 -17 32 -21 0
-5 9 -8 20 -8 11 0 20 -4 20 -10 0 -5 9 -10 19 -10 11 0 23 -4 26 -10 3 -5 15
-10 26 -10 10 0 19 -4 19 -10 0 -5 9 -10 20 -10 11 0 20 -4 20 -10 0 -5 6 -10
14 -10 7 0 48 -18 91 -40 43 -22 84 -40 91 -40 8 0 14 -4 14 -10 0 -5 6 -10
13 -10 8 0 36 -11 63 -25 27 -14 54 -25 60 -25 15 0 76 -31 71 -36 -6 -6 -225
86 -395 165 -162 76 -438 219 -584 303 -78 45 -108 53 -108 29 0 -34 686 -384
1003 -512 56 -23 152 -62 212 -87 256 -106 748 -263 1085 -347 459 -114 1132
-226 1455 -240 44 -2 190 -9 325 -15 508 -24 1116 -1 1574 60 251 33 728 114
748 126 5 3 51 7 101 9 62 2 111 10 148 24 64 24 97 46 86 57 -7 7 -310 -47
-487 -88 -231 -52 -831 -128 -1185 -149 -320 -19 -1063 -10 -1320 16 -191 19
-354 39 -510 61 -206 29 -507 82 -515 91 -3 3 13 3 35 -1 122 -18 141 -20 150
-17 6 2 44 -4 85 -13 41 -8 109 -20 150 -26 41 -6 100 -16 130 -21 209 -37
1073 -91 1345 -83 287 7 978 57 1030 74 17 6 66 14 110 20 207 24 383 50 415
60 19 6 68 15 109 21 40 6 119 24 175 40 55 16 112 29 126 29 27 0 292 61 300
70 6 7 96 36 185 59 115 31 190 55 195 61 3 4 33 13 68 20 34 7 62 16 62 20 0
5 18 11 40 15 22 4 42 10 44 14 3 4 34 16 71 26 36 11 65 22 65 26 0 4 18 10
40 14 22 4 42 11 46 16 3 5 13 9 22 9 9 0 30 7 45 15 15 8 43 17 62 21 19 3
35 10 35 14 0 4 13 10 29 13 15 3 53 17 84 31 31 15 62 26 69 26 7 0 24 9 38
20 14 11 39 20 56 20 46 0 211 45 312 84 48 19 119 43 157 54 39 11 129 42
201 70 71 27 185 66 253 87 67 20 166 54 219 76 169 70 471 184 762 289 74 27
209 76 300 110 91 34 201 74 245 90 44 15 168 60 275 100 107 39 317 116 465
170 477 174 869 318 910 334 22 9 148 55 280 102 328 118 630 229 1355 495
470 172 565 207 710 259 74 26 198 72 275 100 201 74 384 141 590 217 99 36
234 85 300 110 66 24 156 57 200 73 71 25 173 62 620 226 66 24 210 77 320
117 l200 72 3 6923 2 6922 -4587 -1 -4588 -1 -290 -94z m-6419 -17119 c27 -14
59 -25 72 -25 12 0 22 -4 22 -10 0 -5 9 -10 20 -10 11 0 20 -5 20 -11 0 -13
-20 -7 -130 38 -95 39 -102 43 -73 43 11 0 42 -11 69 -25z m225 -82 c16 -3 34
-12 40 -19 6 -8 20 -14 30 -14 11 0 19 -4 19 -10 0 -5 -37 4 -82 21 -86 31
-114 47 -64 35 15 -4 41 -10 57 -13z m196 -74 c15 -6 23 -13 17 -15 -6 -3 -26
2 -45 10 -39 18 -14 22 28 5z m93 -30 c27 -6 50 -15 50 -21 0 -6 -6 -8 -14 -5
-8 3 -33 11 -55 17 -23 6 -41 13 -41 15 0 7 2 6 60 -6z m138 -42 c15 -8 55
-20 90 -27 56 -12 93 -30 60 -30 -21 0 -192 52 -202 61 -15 14 21 11 52 -4z
m230 -63 c23 -7 31 -24 10 -24 -7 1 -26 7 -43 15 -23 10 -26 14 -10 14 11 0
30 -2 43 -5z m59 -30 c-3 -3 -12 -4 -19 -1 -8 3 -5 6 6 6 11 1 17 -2 13 -5z
m88 -18 c41 -12 44 -14 20 -15 -16 0 -43 6 -60 14 -39 18 -22 18 40 1z m150
-36 c18 -8 18 -9 -5 -9 -14 0 -32 4 -40 9 -12 8 -12 10 5 9 11 0 29 -4 40 -9z
m120 -33 c7 -6 -2 -7 -25 -3 -19 3 -39 11 -44 16 -7 7 1 8 24 4 19 -4 40 -11
45 -17z m164 -33 l46 -14 -45 6 c-55 7 -120 23 -120 30 0 6 58 -4 119 -22z"/>
</g>
</svg>
